<svg xmlns="http://www.w3.org/2000/svg" viewBox="0 0 980.13 394.94"><defs><style>.cls-1,.cls-3{fill:#1d1d1b;}.cls-2,.cls-4{fill:#1b3a5e;}.cls-2{stroke:#324363;}.cls-2,.cls-3{stroke-miterlimit:10;}.cls-3{stroke:#1d1d1b;stroke-width:0.25px;}</style></defs><g id="Capa_2" data-name="Capa 2"><g id="Capa_4" data-name="Capa 4"><polygon class="cls-1" points="196.43 386.67 116.69 302.42 119.3 300.02 199.03 384.26 196.43 386.67"/><path class="cls-1" d="M134.21,8.84a8.36,8.36,0,0,1-16.71,0,8.36,8.36,0,0,1,16.71,0Z"/><path class="cls-1" d="M125.86,17.67a8.89,8.89,0,0,1-9-8.83,9,9,0,0,1,17.9,0A8.9,8.9,0,0,1,125.86,17.67Zm0-16.5a7.71,7.71,0,0,0-7.76,7.67,7.76,7.76,0,0,0,15.52,0A7.72,7.72,0,0,0,125.86,1.17Z"/><line class="cls-1" x1="121.06" y1="56.46" x2="125.86" y2="8.84"/><polygon class="cls-1" points="122.83 56.62 119.28 56.28 124.09 8.66 127.62 9 122.83 56.62"/><path class="cls-1" d="M253.81,288.68a8.36,8.36,0,1,1-8.35-8.25A8.3,8.3,0,0,1,253.81,288.68Z"/><path class="cls-1" d="M245.46,297.5a8.83,8.83,0,1,1,8.95-8.82A8.89,8.89,0,0,1,245.46,297.5Zm0-16.47a7.66,7.66,0,1,0,7.77,7.65A7.71,7.71,0,0,0,245.46,281Z"/><path class="cls-1" d="M207.24,386.1a8.36,8.36,0,1,1-8.35-8.24A8.32,8.32,0,0,1,207.24,386.1Z"/><path class="cls-1" d="M198.89,394.94a8.84,8.84,0,1,1,8.94-8.84A8.9,8.9,0,0,1,198.89,394.94Zm0-16.49a7.67,7.67,0,1,0,7.76,7.65A7.73,7.73,0,0,0,198.89,378.45Z"/><path class="cls-1" d="M69.86,191.25A8.35,8.35,0,1,1,61.51,183,8.3,8.3,0,0,1,69.86,191.25Z"/><path class="cls-1" d="M61.51,200.07a8.84,8.84,0,1,1,8.95-8.82A8.9,8.9,0,0,1,61.51,200.07Zm0-16.49a7.66,7.66,0,1,0,7.77,7.67A7.72,7.72,0,0,0,61.51,183.58Z"/><path class="cls-1" d="M338.3,333.89a8.36,8.36,0,1,1-8.36-8.25A8.31,8.31,0,0,1,338.3,333.89Z"/><path class="cls-1" d="M329.94,342.72a8.84,8.84,0,1,1,8.94-8.83A8.9,8.9,0,0,1,329.94,342.72Zm0-16.5a7.67,7.67,0,1,0,7.76,7.67A7.73,7.73,0,0,0,329.94,326.22Z"/><path class="cls-1" d="M360.37,225.64a8.36,8.36,0,1,1-8.36-8.25A8.3,8.3,0,0,1,360.37,225.64Z"/><path class="cls-1" d="M352,234.48a8.84,8.84,0,1,1,9-8.84A8.91,8.91,0,0,1,352,234.48ZM352,218a7.67,7.67,0,1,0,7.77,7.68A7.74,7.74,0,0,0,352,218Z"/><path class="cls-1" d="M394.34,123.42a8.35,8.35,0,1,1-8.36-8.25A8.3,8.3,0,0,1,394.34,123.42Z"/><path class="cls-1" d="M386,132.26a8.84,8.84,0,1,1,9-8.84A8.9,8.9,0,0,1,386,132.26Zm0-16.5a7.66,7.66,0,1,0,7.77,7.66A7.72,7.72,0,0,0,386,115.76Z"/><path class="cls-1" d="M266.78,12a8.36,8.36,0,1,1-8.35-8.25A8.31,8.31,0,0,1,266.78,12Z"/><path class="cls-1" d="M258.43,20.85a8.91,8.91,0,0,1-9-8.83,9,9,0,0,1,17.9,0A8.89,8.89,0,0,1,258.43,20.85Zm0-16.5A7.67,7.67,0,1,0,266.19,12,7.73,7.73,0,0,0,258.43,4.35Z"/><path class="cls-1" d="M49.47,325.64a8.36,8.36,0,1,1-8.35-8.26A8.31,8.31,0,0,1,49.47,325.64Z"/><path class="cls-1" d="M41.12,334.46a8.83,8.83,0,1,1,9-8.82A8.89,8.89,0,0,1,41.12,334.46Zm0-16.48a7.66,7.66,0,1,0,7.76,7.66A7.71,7.71,0,0,0,41.12,318Z"/><path class="cls-1" d="M125.86,301.22A8.36,8.36,0,1,1,117.5,293,8.3,8.3,0,0,1,125.86,301.22Z"/><path class="cls-1" d="M117.5,310a8.84,8.84,0,1,1,9-8.82A8.87,8.87,0,0,1,117.5,310Zm0-16.49a7.66,7.66,0,1,0,7.77,7.67A7.72,7.72,0,0,0,117.5,293.55Z"/><path class="cls-1" d="M129.4,56.46a8.35,8.35,0,1,1-8.34-8.25A8.3,8.3,0,0,1,129.4,56.46Z"/><path class="cls-1" d="M121.06,65.29A8.84,8.84,0,1,1,130,56.46,8.9,8.9,0,0,1,121.06,65.29Zm0-16.51a7.67,7.67,0,1,0,7.76,7.68A7.73,7.73,0,0,0,121.06,48.78Z"/><path class="cls-1" d="M17.3,100.87A8.3,8.3,0,0,1,9,109.13a8.25,8.25,0,1,1,0-16.5A8.3,8.3,0,0,1,17.3,100.87Z"/><path class="cls-1" d="M9,109.71A8.83,8.83,0,1,1,9,92.05a8.83,8.83,0,1,1,0,17.66Zm0-16.5a7.67,7.67,0,1,0,7.76,7.66A7.73,7.73,0,0,0,9,93.21Z"/><line class="cls-1" x1="125.86" y1="8.84" x2="258.43" y2="12.02"/><rect class="cls-1" x="190.38" y="-55.88" width="3.51" height="132.6" transform="translate(177.1 202.26) rotate(-88.62)"/><line class="cls-1" x1="258.43" y1="12.02" x2="385.98" y2="123.42"/><polygon class="cls-1" points="384.81 124.73 257.24 13.33 259.6 10.7 387.16 122.1 384.81 124.73"/><line class="cls-1" x1="385.98" y1="123.42" x2="352.01" y2="225.64"/><polygon class="cls-1" points="353.7 226.18 350.33 225.09 384.3 122.88 387.68 123.97 353.7 226.18"/><line class="cls-1" x1="352.01" y1="225.64" x2="329.94" y2="333.89"/><polygon class="cls-1" points="331.68 334.24 328.2 333.55 350.27 225.29 353.76 225.99 331.68 334.24"/><line class="cls-1" x1="329.94" y1="333.89" x2="245.46" y2="288.68"/><polygon class="cls-1" points="329.09 335.43 244.62 290.22 246.31 287.13 330.78 332.34 329.09 335.43"/><line class="cls-1" x1="245.46" y1="288.68" x2="352.01" y2="225.64"/><polygon class="cls-1" points="246.38 290.18 244.55 287.18 351.11 224.13 352.93 227.13 246.38 290.18"/><line class="cls-1" x1="352.01" y1="225.64" x2="258.43" y2="12.02"/><polygon class="cls-1" points="350.38 226.33 256.79 12.71 260.05 11.32 353.65 224.94 350.38 226.33"/><line class="cls-1" x1="258.43" y1="12.02" x2="121.06" y2="56.46"/><polygon class="cls-1" points="121.61 58.12 120.51 54.79 257.87 10.35 258.98 13.68 121.61 58.12"/><line class="cls-1" x1="121.06" y1="56.46" x2="61.51" y2="191.25"/><polygon class="cls-1" points="63.14 191.94 59.88 190.54 119.42 55.75 122.68 57.15 63.14 191.94"/><line class="cls-1" x1="61.51" y1="191.25" x2="8.95" y2="100.87"/><polygon class="cls-1" points="59.98 192.11 7.41 101.76 10.49 100 63.05 190.37 59.98 192.11"/><line class="cls-1" x1="8.95" y1="100.87" x2="121.06" y2="56.46"/><polygon class="cls-1" points="9.61 102.51 8.29 99.26 120.39 54.82 121.71 58.08 9.61 102.51"/><line class="cls-1" x1="8.95" y1="100.87" x2="41.12" y2="325.64"/><polygon class="cls-1" points="39.36 325.88 7.19 101.12 10.71 100.64 42.88 325.39 39.36 325.88"/><line class="cls-1" x1="41.12" y1="325.64" x2="61.51" y2="191.25"/><polygon class="cls-1" points="42.88 325.9 39.36 325.39 59.75 190.99 63.27 191.49 42.88 325.9"/><line class="cls-1" x1="245.46" y1="288.68" x2="198.89" y2="386.1"/><polygon class="cls-1" points="200.49 386.86 197.28 385.35 243.85 287.92 247.08 289.43 200.49 386.86"/><line class="cls-1" x1="117.5" y1="301.22" x2="61.51" y2="191.25"/><polygon class="cls-1" points="115.92 302.01 59.92 192.03 63.1 190.46 119.08 300.43 115.92 302.01"/><line class="cls-1" x1="117.5" y1="301.22" x2="41.12" y2="325.64"/><polygon class="cls-1" points="41.67 327.3 40.57 323.97 116.95 299.55 118.05 302.88 41.67 327.3"/><line class="cls-1" x1="41.12" y1="325.64" x2="198.89" y2="386.1"/><polygon class="cls-1" points="198.24 387.76 40.48 327.27 41.76 324 199.53 384.48 198.24 387.76"/><line class="cls-1" x1="41.12" y1="325.64" x2="329.94" y2="333.89"/><polygon class="cls-1" points="329.89 335.64 41.06 327.39 41.17 323.89 329.99 332.13 329.89 335.64"/><line class="cls-1" x1="198.89" y1="386.1" x2="117.5" y2="301.22"/><polygon class="cls-1" points="197.59 387.32 116.21 302.42 118.79 300.01 200.18 384.9 197.59 387.32"/><polygon class="cls-1" points="132.62 230.87 60.68 192.78 62.35 189.69 132.62 226.88 132.62 230.87"/><polygon class="cls-1" points="244.62 290.22 214.08 274.06 218.95 272.65 246.31 287.13 244.62 290.22"/><polygon class="cls-1" points="118.56 302.88 117.43 299.55 132.58 294.52 132.68 298.19 118.56 302.88"/><path class="cls-1" d="M238.71,264a99.45,99.45,0,0,0,10.8-7.13L351.46,224l1.11,3.33Z"/><polygon class="cls-1" points="139.05 71.83 120 57.85 122.11 55.04 145.03 71.83 139.05 71.83"/><polygon class="cls-1" points="351.09 227.14 290.82 183.01 291.11 178.84 353.33 224.43 351.09 227.14"/><path class="cls-2" d="M285.94,175.58a94.16,94.16,0,0,1-7.35,37.08,96.65,96.65,0,0,1-20.33,30.5A98.65,98.65,0,0,1,228.06,264a93.34,93.34,0,0,1-36.91,8v36.61H138.28V78.9h52.87A91.44,91.44,0,0,1,228.06,87,101,101,0,0,1,258.26,108a97,97,0,0,1,20.33,30.52A94,94,0,0,1,285.94,175.58Zm-94.79,43.49a41.31,41.31,0,0,0,16.42-3.93,44.9,44.9,0,0,0,13.3-9.42,43.41,43.41,0,0,0,8.91-13.66,43.73,43.73,0,0,0,0-33.28,43.75,43.75,0,0,0-8.91-13.66,45.64,45.64,0,0,0-13.3-9.42,41.83,41.83,0,0,0-16.42-3.93Z"/><path class="cls-3" d="M408.54,235.53h-6.1V166.35a6.1,6.1,0,0,1,6.1-6.1h0Z"/><path class="cls-4" d="M465.44,191.94A30.83,30.83,0,0,1,463,204.1a31.34,31.34,0,0,1-6.66,10,32,32,0,0,1-9.9,6.83,30.72,30.72,0,0,1-12.1,2.62v12H417V160.25h17.34a30.07,30.07,0,0,1,12.1,2.66,32.89,32.89,0,0,1,9.9,6.88,31.38,31.38,0,0,1,6.66,10A30.82,30.82,0,0,1,465.44,191.94ZM434.37,206.2a13.63,13.63,0,0,0,5.38-1.29,14.55,14.55,0,0,0,4.36-3.09A14.31,14.31,0,0,0,447,186.44a14.27,14.27,0,0,0-2.92-4.49,14.88,14.88,0,0,0-4.36-3.08,13.63,13.63,0,0,0-5.38-1.29Z"/><path class="cls-4" d="M498.47,216.05c-.89.13-1.77.24-2.67.3l-2.76.21v19H475.7v-75H493a34.11,34.11,0,0,1,12.1,2.36A33.48,33.48,0,0,1,515,169a27.75,27.75,0,0,1,6.67,8.81,24.56,24.56,0,0,1,2.41,10.75,24.92,24.92,0,0,1-2.57,11.22,27,27,0,0,1-7.18,9L531,235.53H510.58ZM493,199.13a18.55,18.55,0,0,0,5.28-1,16,16,0,0,0,4.41-2.31,10.87,10.87,0,0,0,3-3.33,8.07,8.07,0,0,0,1.08-4.06,7.74,7.74,0,0,0-1.08-4,11.06,11.06,0,0,0-3-3.28,15.77,15.77,0,0,0-4.41-2.31,18.21,18.21,0,0,0-5.28-1Z"/><path class="cls-4" d="M571,160.15a36.51,36.51,0,0,1,14.65,3,38.72,38.72,0,0,1,12,8,37.84,37.84,0,0,1,8.09,12,37.6,37.6,0,0,1,0,29.34,37.84,37.84,0,0,1-8.09,11.95,38.72,38.72,0,0,1-12,8.05,37.62,37.62,0,0,1-29.3,0,37.63,37.63,0,0,1-20-20,37.72,37.72,0,0,1,0-29.34,37.63,37.63,0,0,1,20-20A36.51,36.51,0,0,1,571,160.15Zm.05,57.94a19.77,19.77,0,0,0,7.9-1.58,20.43,20.43,0,0,0,10.82-10.83,20.4,20.4,0,0,0,0-15.79A20.45,20.45,0,0,0,579,179.07a20.42,20.42,0,0,0-15.8,0,20.45,20.45,0,0,0-10.82,10.82,20.4,20.4,0,0,0,0,15.79,20.43,20.43,0,0,0,10.82,10.83A19.77,19.77,0,0,0,571.09,218.09Z"/><path class="cls-4" d="M625.66,235.53l8.72-21.33-25.75-54.56h19.18l15.49,32.71,13.23-32.71H675.3l-30.87,75.89Z"/><path class="cls-4" d="M732.74,177.58h-31V189H726.9v17.35H701.77V218.2h31v17.33H684.43V160.35l48.31-.1Z"/><path class="cls-4" d="M774.18,235.43A38.61,38.61,0,0,1,760,232.72a36.31,36.31,0,0,1-12.46-8.27,38,38,0,0,1-8.15-12.25,37.61,37.61,0,0,1,8.15-41.08A36.85,36.85,0,0,1,760,162.81a37.68,37.68,0,0,1,28.36,0,37,37,0,0,1,12.46,8.31l-12.21,12.21a19.47,19.47,0,0,0-6.77-4.46,20.74,20.74,0,0,0-7.69-1.49,20.37,20.37,0,0,0-7.64,1.49,19.56,19.56,0,0,0-6.72,4.46,21.23,21.23,0,0,0-4.41,6.67,19.9,19.9,0,0,0-1.54,7.79,19.59,19.59,0,0,0,1.54,7.74,21.48,21.48,0,0,0,4.41,6.62,19.7,19.7,0,0,0,6.72,4.46,20.56,20.56,0,0,0,7.64,1.48,20.93,20.93,0,0,0,7.69-1.48,19.61,19.61,0,0,0,6.77-4.46l12.21,12.3a36.4,36.4,0,0,1-12.41,8.27A38.48,38.48,0,0,1,774.18,235.43Z"/><path class="cls-4" d="M849.16,159.94v17.33H834.7v58.26H817.36V177.27H803V159.94Z"/><path class="cls-4" d="M889,160.15a36.51,36.51,0,0,1,14.65,3,38.84,38.84,0,0,1,12,8,37.84,37.84,0,0,1,8.09,12,37.6,37.6,0,0,1,0,29.34,37.84,37.84,0,0,1-8.09,11.95,38.84,38.84,0,0,1-12,8.05,37.62,37.62,0,0,1-29.3,0,37.63,37.63,0,0,1-20-20,37.72,37.72,0,0,1,0-29.34,37.63,37.63,0,0,1,20-20A36.51,36.51,0,0,1,889,160.15Zm0,57.94a19.8,19.8,0,0,0,7.9-1.58,20.43,20.43,0,0,0,10.82-10.83,20.4,20.4,0,0,0,0-15.79A20.45,20.45,0,0,0,897,179.07a20.42,20.42,0,0,0-15.8,0,20.45,20.45,0,0,0-10.82,10.82,20.4,20.4,0,0,0,0,15.79,20.43,20.43,0,0,0,10.82,10.83A19.77,19.77,0,0,0,889.06,218.09Z"/><path class="cls-4" d="M954.3,237a27.18,27.18,0,0,1-7.14-1,23.94,23.94,0,0,1-6.71-3,25,25,0,0,1-8.61-9.28,25.6,25.6,0,0,1-3.08-12.46h17.32a7.56,7.56,0,0,0,1.34,4.77,9.66,9.66,0,0,0,2.36,2.3,7.8,7.8,0,0,0,4,1.34,9.17,9.17,0,0,0,4.21-.83,6.75,6.75,0,0,0,2.3-1.53,8.45,8.45,0,0,0,1.34-1.8,5.09,5.09,0,0,0,.56-1.69,13.26,13.26,0,0,0,.1-1.33,12.86,12.86,0,0,0-.1-1.33,5.55,5.55,0,0,0-.56-1.75,7.15,7.15,0,0,0-1.34-1.79A8.7,8.7,0,0,0,958,206c-.76-.33-1.56-.64-2.41-.92s-1.77-.58-2.73-.92q-2.55-.83-5.33-1.85a30.09,30.09,0,0,1-5.54-2.76,21.75,21.75,0,0,1-6.05-5.65,22.23,22.23,0,0,1-3.53-7.28,22.6,22.6,0,0,1-.73-8.05,21.46,21.46,0,0,1,2.32-7.95,22.51,22.51,0,0,1,4.61-6.05,22.2,22.2,0,0,1,6.15-4.06,22.81,22.81,0,0,1,7.29-1.79,23.7,23.7,0,0,1,7.89.72,23,23,0,0,1,7.06,2.92,22.71,22.71,0,0,1,5.45,4.82,21.13,21.13,0,0,1,3.52,6.31,22,22,0,0,1,1.22,7.28H959.93a3.54,3.54,0,0,0-1.48-3.28,10.32,10.32,0,0,0-2.62-1.23,7,7,0,0,1-1-.15,4.66,4.66,0,0,0-1.75,0,6.06,6.06,0,0,0-2,.72,4,4,0,0,0-1.64,1.79,4.58,4.58,0,0,0-.31,3.43,4.87,4.87,0,0,0,2.06,2.82,21.32,21.32,0,0,0,3.18,1.49q1.74.68,3.69,1.29c1.16.34,2.34.71,3.53,1.12s2.41.89,3.63,1.44a24.1,24.1,0,0,1,14.38,22.26,23.89,23.89,0,0,1-3.82,13.13,24.23,24.23,0,0,1-10.56,9,25.14,25.14,0,0,1-5.42,1.79A28,28,0,0,1,954.3,237Z"/><path class="cls-4" d="M647.15,312.08a15.2,15.2,0,0,1-4-.55,14.12,14.12,0,0,1-3.81-1.71,14.45,14.45,0,0,1-6.62-12.33h9.83a4.27,4.27,0,0,0,.75,2.7,5.17,5.17,0,0,0,1.34,1.31,4.32,4.32,0,0,0,2.26.75,5.13,5.13,0,0,0,2.39-.46,3.71,3.71,0,0,0,1.31-.87,4.9,4.9,0,0,0,.75-1,2.92,2.92,0,0,0,.33-.95c0-.32,0-.57,0-.77s0-.44,0-.75a3.15,3.15,0,0,0-.33-1,3.92,3.92,0,0,0-.75-1,5.56,5.56,0,0,0-1.31-.91c-.43-.17-.88-.35-1.37-.52s-1-.32-1.53-.52c-1-.31-2-.65-3-1a17,17,0,0,1-3.14-1.57,12.32,12.32,0,0,1-3.43-3.2,12.87,12.87,0,0,1-2-4.13,12.69,12.69,0,0,1-.41-4.57,12.26,12.26,0,0,1,1.31-4.5,12.91,12.91,0,0,1,2.62-3.43,12.72,12.72,0,0,1,3.48-2.31,13.38,13.38,0,0,1,4.13-1,14,14,0,0,1,4.48.41,13.3,13.3,0,0,1,4,1.66,12.45,12.45,0,0,1,3.09,2.73,11.84,11.84,0,0,1,2,3.57,12.53,12.53,0,0,1,.69,4.14h-9.78a2,2,0,0,0-.84-1.86,6,6,0,0,0-1.48-.7,3.55,3.55,0,0,1-.55-.09,2.74,2.74,0,0,0-1,0,3.89,3.89,0,0,0-1.14.4,2.36,2.36,0,0,0-.92,1,2.55,2.55,0,0,0-.18,1.95,2.82,2.82,0,0,0,1.16,1.61,12.16,12.16,0,0,0,1.81.83c.66.26,1.35.5,2.08.74s1.34.4,2,.63,1.36.51,2.06.82a13.66,13.66,0,0,1,8.15,12.61,13.46,13.46,0,0,1-2.17,7.45,13.71,13.71,0,0,1-6,5.11,13.53,13.53,0,0,1-3.07,1A16,16,0,0,1,647.15,312.08Z"/><path class="cls-4" d="M690.12,311.27l-1.68-5.17H675l-1.74,5.17H662.85l14.53-42.68h9.31l13.78,42.68Zm-11.75-15h6.93l-3.38-10.35Z"/><path class="cls-4" d="M728,268.59h9.82v42.68H727.16l-14-24.89v24.89h-9.82V268.7h10.7L728,293.53Z"/><path class="cls-4" d="M781.59,268.53h10.12l2.5,42.74h-9.82l-1-17.44-5.93,17.44h-9.83l-6.29-18.14-1.15,18.14h-9.89L753,268.53H763.1l9.36,26.74Z"/><path class="cls-4" d="M821.61,311.27l-1.7-5.17H806.49l-1.75,5.17H794.33l14.54-42.68h9.3L832,311.27Zm-11.75-15h6.92l-3.38-10.35Z"/><path class="cls-4" d="M847.77,300.22c-.51.07-1,.14-1.52.17l-1.56.12v10.76h-9.83V268.75h9.83a19.39,19.39,0,0,1,6.86,1.34,18.77,18.77,0,0,1,5.6,3.43,15.71,15.71,0,0,1,3.79,5,13.8,13.8,0,0,1,1.37,6.1,14.07,14.07,0,0,1-1.46,6.35,15.32,15.32,0,0,1-4.07,5.08l9.43,15.22H854.63Zm-3.08-9.59a10.63,10.63,0,0,0,3-.56,8.85,8.85,0,0,0,2.5-1.31,6.13,6.13,0,0,0,1.69-1.88,4.61,4.61,0,0,0,.61-2.3,4.43,4.43,0,0,0-.61-2.28,6.4,6.4,0,0,0-1.69-1.85,8.59,8.59,0,0,0-2.5-1.3,9.66,9.66,0,0,0-3-.56Z"/><path class="cls-4" d="M888.94,311.22a21.78,21.78,0,0,1-8.05-1.55,20.54,20.54,0,0,1-7.07-4.68,21.64,21.64,0,0,1-4.63-6.95,21.91,21.91,0,0,1,0-16.39A21.58,21.58,0,0,1,880.92,270,21.37,21.37,0,0,1,897,270a20.72,20.72,0,0,1,7,4.72l-6.91,6.9a11.2,11.2,0,0,0-3.84-2.51,11.7,11.7,0,0,0-4.36-.85,11.48,11.48,0,0,0-4.33.85,11.08,11.08,0,0,0-3.81,2.51,12.7,12.7,0,0,0-2.51,3.79,11.6,11.6,0,0,0-.86,4.42,11.38,11.38,0,0,0,.86,4.39A12.7,12.7,0,0,0,880.8,298a10.94,10.94,0,0,0,3.81,2.51,11.48,11.48,0,0,0,4.33.85,11.7,11.7,0,0,0,4.36-.85,11.06,11.06,0,0,0,3.84-2.51l6.91,7a20.48,20.48,0,0,1-7,4.68A21.66,21.66,0,0,1,888.94,311.22Z"/><path class="cls-4" d="M925.36,268.53a20.63,20.63,0,0,1,8.32,1.69,21.45,21.45,0,0,1,11.38,11.33,21.3,21.3,0,0,1,0,16.63,21.43,21.43,0,0,1-11.38,11.34,21.16,21.16,0,0,1-16.62,0,21.26,21.26,0,0,1-11.31-11.34,21.19,21.19,0,0,1,0-16.63,21.28,21.28,0,0,1,11.31-11.33A20.64,20.64,0,0,1,925.36,268.53Zm0,32.85a11.24,11.24,0,0,0,4.48-.9,11.73,11.73,0,0,0,3.66-2.46,11.46,11.46,0,0,0,2.47-3.68,11.13,11.13,0,0,0,.91-4.47,11.25,11.25,0,0,0-.91-4.48,11.54,11.54,0,0,0-15.09-6.13,11.58,11.58,0,0,0-6.13,6.13,11.07,11.07,0,0,0-.9,4.48,11,11,0,0,0,.9,4.47,11.62,11.62,0,0,0,2.47,3.68,11.84,11.84,0,0,0,3.66,2.46A11.24,11.24,0,0,0,925.4,301.38Z"/><path class="cls-4" d="M962.38,312.08a15.13,15.13,0,0,1-4-.55,13.79,13.79,0,0,1-3.8-1.71,14.35,14.35,0,0,1-4.89-5.27,14.51,14.51,0,0,1-1.74-7.06h9.82a4.34,4.34,0,0,0,.75,2.7,5.68,5.68,0,0,0,1.34,1.31,4.41,4.41,0,0,0,2.27.75,5.13,5.13,0,0,0,2.39-.46,3.49,3.49,0,0,0,1.3-.87,4.34,4.34,0,0,0,.76-1,2.49,2.49,0,0,0,.32-.95,6.42,6.42,0,0,0,.06-.77,6.14,6.14,0,0,0-.06-.75,2.68,2.68,0,0,0-.32-1,3.55,3.55,0,0,0-.76-1,5.1,5.1,0,0,0-1.3-.91c-.42-.17-.89-.35-1.37-.52s-1-.32-1.54-.52c-1-.31-2-.65-3-1a16.74,16.74,0,0,1-3.14-1.57,12.18,12.18,0,0,1-3.43-3.2,12.87,12.87,0,0,1-2-4.13,12.69,12.69,0,0,1-.41-4.57,12.07,12.07,0,0,1,1.31-4.5,12.91,12.91,0,0,1,2.62-3.43,12.77,12.77,0,0,1,3.49-2.31,13.32,13.32,0,0,1,4.12-1,14,14,0,0,1,4.48.41,13.09,13.09,0,0,1,4,1.66,12.63,12.63,0,0,1,3.09,2.73,11.84,11.84,0,0,1,2,3.57,12.53,12.53,0,0,1,.69,4.14h-9.78a2,2,0,0,0-.84-1.86,5.84,5.84,0,0,0-1.48-.7,3.55,3.55,0,0,1-.55-.09,2.74,2.74,0,0,0-1,0,3.74,3.74,0,0,0-1.13.4,2.21,2.21,0,0,0-.93,1,2.6,2.6,0,0,0-.19,1.95,2.89,2.89,0,0,0,1.17,1.61,12.16,12.16,0,0,0,1.81.83c.65.26,1.34.5,2.09.74s1.32.4,2,.63,1.37.51,2.06.82a13.91,13.91,0,0,1-3.08,26.2A15.84,15.84,0,0,1,962.38,312.08Z"/><rect class="cls-3" x="628.84" y="248.8" width="351.16" height="4.62" rx="2.31"/></g></g></svg>